<?xml version="1.0" encoding="UTF-8" standalone="no"?>
<!-- Created with Inkscape (http://www.inkscape.org/) -->

<svg
   xmlns:dc="http://purl.org/dc/elements/1.1/"
   xmlns:cc="http://creativecommons.org/ns#"
   xmlns:rdf="http://www.w3.org/1999/02/22-rdf-syntax-ns#"
   xmlns:svg="http://www.w3.org/2000/svg"
   xmlns="http://www.w3.org/2000/svg"
   version="1.1"
   width="30"
   height="30"
   id="svg2">
  <defs
     id="defs4" />
  <metadata
     id="metadata7">
    <rdf:RDF>
      <cc:Work
         rdf:about="">
        <dc:format>image/svg+xml</dc:format>
        <dc:type
           rdf:resource="http://purl.org/dc/dcmitype/StillImage" />
        <dc:title></dc:title>
      </cc:Work>
    </rdf:RDF>
  </metadata>
  <g
     transform="translate(0,-1022.3622)"
     id="layer1">
    <path
       d="m 0,15 0,15 30,0 0,-15 -1,1 0,3.65625 C 29,24.82685 24.826916,29 19.65625,29 l -9.3125,0 C 5.173084,29 1,24.82685 1,19.65625 L 1,16 z"
       transform="translate(0,1022.3622)"
       id="rect2985"
       style="fill:#000000;fill-opacity:1;fill-rule:nonzero;stroke:none" />
    <path
       d="m 0,14 0,6 c 0,5.54 4.4600004,10 10,10 l 10,0 c 5.54,0 10,-4.46 10,-10 l 0,-6 -1,2 0,3.65625 C 29,24.82695 24.826916,29 19.65625,29 l -9.3125,0 C 5.1730832,29 1,24.82695 1,19.65625 L 1,16 z"
       transform="translate(0,1022.3622)"
       id="rect3818"
       style="fill:#404040;fill-opacity:1;fill-rule:nonzero;stroke:none" />
  </g>
</svg>
