<svg xmlns="http://www.w3.org/2000/svg" xmlns:xlink="http://www.w3.org/1999/xlink" height="40" width="40" version="1.1"><defs><linearGradient id="linearGradient4029" y2="0.45" gradientUnits="userSpaceOnUse" x2="20" gradientTransform="translate(-1e-7,1022.3623)" y1="30.2" x1="20"><stop stop-color="#000" stop-opacity="0.93" offset="0"/><stop stop-color="#000" stop-opacity="0.83" offset="1"/></linearGradient></defs><g transform="translate(0,-1012.3622)" fill-rule="nonzero"><path fill="url(#linearGradient4029)" d="m19.53 1013c-5.56 0-10.06 4.47-10.06 10.03v15.36 3.47 0.19c0 5.17-4.17 9.34-9.34 9.34h-9.31c-5.17 0-9.34-4.17-9.34-9.34v-3.66l-1-1v15h29.06 0.94 19.97v-0.03h29.16v-15l-1 1v3.66c0 5.17-4.17 9.34-9.34 9.34h-9.31c-5.17 0-9.34-4.17-9.34-9.34 0.02-1.23-0.11-2.59-0.12-3.78v-15.21c0-5.56-4.5-10.03-10.06-10.03z"/><path fill="#404040" d="m-20 1036.4 0 6c0 5.54 4.46 10 10 10h10c5.54 0 10-4.46 10-10v-6.1l-1 2v3.76c0 5.17-4.17 9.34-9.34 9.34h-9.31c-5.17 0-9.34-4.2-9.34-9.4v-3.66z"/><path fill="#404040" d="m30 1036.3 0 6.1c0 5.54 4.46 10 10 10h10c5.54 0 10-4.46 10-10v-6l-1 2v3.66c0 5.17-4.17 9.34-9.34 9.34h-9.31c-5.17 0-9.34-4.17-9.34-9.34v-3.76z"/><path fill="#404040" d="m9 1038.4 0-16c0-5.54 4.46-10 10-10h2c5.54 0 9.91 4.46 10 10v16l-1-2v-13.66c0-5.17-4.17-9.34-9.34-9.34h-1.31c-5.17 0-9.34 4.17-9.34 9.34v13.66z"/></g></svg>