<svg xmlns="http://www.w3.org/2000/svg" height="30" width="30" version="1.1"><g transform="translate(0,-1022.3622)" fill-rule="nonzero"><path d="m0 15 0 15 30 0 0-15-1 1 0 3.66c0 5.17-4.17 9.34-9.34 9.34h-9.31c-5.17 0-9.34-4.17-9.34-9.34v-3.66z" transform="translate(0,1022.3622)" fill="#000"/><path d="m0 14 0 6c0 5.54 4.46 10 10 10h10c5.54 0 10-4.46 10-10v-6l-1 2v3.66c0 5.17-4.17 9.34-9.34 9.34h-9.31c-5.17 0-9.34-4.17-9.34-9.34v-3.66z" transform="translate(0,1022.3622)" fill="#404040"/></g></svg>
