<svg xmlns="http://www.w3.org/2000/svg" xmlns:xlink="http://www.w3.org/1999/xlink" height="40" width="40" version="1.1"><defs><linearGradient id="linearGradient3791" y2="0.45" gradientUnits="userSpaceOnUse" x2="20" gradientTransform="matrix(0,-1,1,0,10.0001,1052.3622)" y1="30.2" x1="20"><stop stop-color="#000" stop-opacity="0.63" offset="0"/><stop stop-color="#000" stop-opacity="0.63" offset="1"/></linearGradient><linearGradient id="linearGradient3793" y2="20.13" gradientUnits="userSpaceOnUse" x2="40.25" gradientTransform="matrix(1.7621091,0,0,0.99688474,-30.924885,1012.3)" y1="20.13" x1="39.06"><stop stop-color="#000" stop-opacity="0" offset="0"/><stop stop-color="#000" offset="1"/></linearGradient></defs><g transform="translate(0,-1012.3622)"><g transform="matrix(-1,0,0,-1,40,2064.7244)" fill-rule="nonzero"><path fill="url(#linearGradient3791)" d="m0.61 1032.8c0 5.56 4.47 10.06 10.03 10.06h15.36 3.47 0.19c5.17 0 9.34 4.17 9.34 9.34v9.31c0 5.17-4.17 9.34-9.34 9.34h-3.66l-1 1h15v-29.06-0.94-19.97h-0.03v-29.16h-15l1 1h3.66c5.17 0 9.34 4.17 9.34 9.34v9.31c0 5.17-4.17 9.34-9.34 9.34-1.23-0.02-2.59 0.11-3.78 0.13h-15.21c-5.56 0-10.03 4.5-10.03 10.06z"/><path fill="url(#linearGradient3793)" d="m37.95 1017.4 2.05-4.99 0 40-2.07-5.19z"/><path fill="#404040" d="m24 1072.4 6 0c5.54 0 10-4.46 10-10v-10c0-5.54-4.46-10-10-10h-6.1l2 1h3.76c5.17 0 9.34 4.17 9.34 9.34v9.31c0 5.17-4.17 9.34-9.34 9.34h-3.66z"/><path fill="#404040" d="m23.9 1022.4 6.1 0c5.54 0 10-4.46 10-10v-10c0-5.54-4.46-10-10-10h-6l2 1h3.66c5.17 0 9.34 4.17 9.34 9.34v9.31c0 5.17-4.17 9.34-9.34 9.34h-3.76z"/><path fill="#404040" d="m26 1043.4-16 0c-5.54 0-10-4.46-10-10v-2c0-5.54 4.46-9.91 10-10h16l-2 1h-13.66c-5.17 0-9.34 4.17-9.34 9.34v1.31c0 5.17 4.17 9.34 9.34 9.34h13.66z"/></g></g></svg>