<?xml version="1.0" encoding="UTF-8" standalone="no"?>
<!-- Created with Inkscape (http://www.inkscape.org/) -->

<svg
   xmlns:dc="http://purl.org/dc/elements/1.1/"
   xmlns:cc="http://creativecommons.org/ns#"
   xmlns:rdf="http://www.w3.org/1999/02/22-rdf-syntax-ns#"
   xmlns:svg="http://www.w3.org/2000/svg"
   xmlns="http://www.w3.org/2000/svg"
   version="1.1"
   width="30"
   height="30"
   id="svg2">
  <defs
     id="defs4" />
  <metadata
     id="metadata7">
    <rdf:RDF>
      <cc:Work
         rdf:about="">
        <dc:format>image/svg+xml</dc:format>
        <dc:type
           rdf:resource="http://purl.org/dc/dcmitype/StillImage" />
        <dc:title></dc:title>
      </cc:Work>
    </rdf:RDF>
  </metadata>
  <g
     id="g3758">
    <rect
       width="30"
       height="14.5"
       x="0"
       y="15.5"
       id="rect2986"
       style="fill:#000000;fill-opacity:1;fill-rule:nonzero;stroke:none" />
    <path
       d="m 0,1 0,15 30,0 0,-15 -1,1 0,3.65625 C 29,10.82685 24.826916,15 19.65625,15 l -9.3125,0 C 5.173084,15 1,10.82685 1,5.65625 L 1,2 z"
       id="rect2985"
       style="fill:#000000;fill-opacity:1;fill-rule:nonzero;stroke:none" />
    <path
       d="m 0,0 0,6 c 0,5.54 4.4600004,10 10,10 l 10,0 c 5.54,0 10,-4.46 10,-10 l 0,-6 -1,2 0,3.65625 C 29,10.82695 24.826916,15 19.65625,15 l -9.3125,0 C 5.1730832,15 1,10.82695 1,5.65625 L 1,2 z"
       id="rect3818"
       style="fill:#404040;fill-opacity:1;fill-rule:nonzero;stroke:none" />
  </g>
</svg>
