<?xml version="1.0" encoding="UTF-8" standalone="no"?>
<!-- Created with Inkscape (http://www.inkscape.org/) -->

<svg
   xmlns:dc="http://purl.org/dc/elements/1.1/"
   xmlns:cc="http://creativecommons.org/ns#"
   xmlns:rdf="http://www.w3.org/1999/02/22-rdf-syntax-ns#"
   xmlns:svg="http://www.w3.org/2000/svg"
   xmlns="http://www.w3.org/2000/svg"
   xmlns:xlink="http://www.w3.org/1999/xlink"
   version="1.1"
   width="40"
   height="40"
   id="svg2">
  <defs
     id="defs4">
    <linearGradient
       id="linearGradient3775">
      <stop
         id="stop3777"
         style="stop-color:#000000;stop-opacity:0"
         offset="0" />
      <stop
         id="stop3779"
         style="stop-color:#000000;stop-opacity:1"
         offset="1" />
    </linearGradient>
    <linearGradient
       id="linearGradient3978">
      <stop
         id="stop3980"
         style="stop-color:#000000;stop-opacity:0.63"
         offset="0" />
      <stop
         id="stop3982"
         style="stop-color:#000000;stop-opacity:0.63"
         offset="1" />
    </linearGradient>
    <linearGradient
       x1="19.997864"
       y1="30.203125"
       x2="19.997864"
       y2="0.453125"
       id="linearGradient4029"
       xlink:href="#linearGradient3978"
       gradientUnits="userSpaceOnUse"
       gradientTransform="translate(-1e-7,1022.3623)" />
    <linearGradient
       x1="19.997864"
       y1="30.203125"
       x2="19.997864"
       y2="0.453125"
       id="linearGradient3002"
       xlink:href="#linearGradient3978"
       gradientUnits="userSpaceOnUse"
       gradientTransform="translate(-1e-7,1022.3623)" />
    <linearGradient
       x1="19.997864"
       y1="30.203125"
       x2="19.997864"
       y2="0.453125"
       id="linearGradient3003"
       xlink:href="#linearGradient3978"
       gradientUnits="userSpaceOnUse"
       gradientTransform="matrix(0,-1,1,0,10.0001,1052.3622)" />
    <linearGradient
       x1="39.0625"
       y1="20.125"
       x2="40.25"
       y2="20.125"
       id="linearGradient3781"
       xlink:href="#linearGradient3775"
       gradientUnits="userSpaceOnUse"
       gradientTransform="matrix(1.7621091,0,0,0.99688474,-30.924885,1012.3)" />
  </defs>
  <metadata
     id="metadata7">
    <rdf:RDF>
      <cc:Work
         rdf:about="">
        <dc:format>image/svg+xml</dc:format>
        <dc:type
           rdf:resource="http://purl.org/dc/dcmitype/StillImage" />
        <dc:title></dc:title>
      </cc:Work>
    </rdf:RDF>
  </metadata>
  <g
     transform="translate(0,-1012.3622)"
     id="layer1">
    <path
       d="m 0.6062,1032.831 c 0,5.5606 4.4706,10.0625 10.0313,10.0625 l 15.3625,0 3.4687,0 0.1875,0 c 5.1706,0 9.3438,4.173 9.3438,9.3437 l 0,9.3125 c 0,5.1707 -4.1732,9.3438 -9.3438,9.3438 l -3.6562,0 -1,1 15,0 0,-29.0625 0,-0.9375 0,-19.9688 -0.031,0 0,-29.15625 -15,0 1,1 3.6563,0 c 5.1706,0 9.3437,4.17308 9.3437,9.34375 l 0,9.3125 c 0,5.1707 -4.1731,9.3438 -9.3437,9.3438 -1.2343,-0.024 -2.5944,0.1098 -3.7813,0.125 l -15.2062,0 c -5.5607,0 -10.0294,4.5018 -10.0313,10.0625 z"
       id="rect3918"
       style="fill:url(#linearGradient3003);fill-opacity:1;fill-rule:nonzero;stroke:none" />
    <path
       d="m 37.951688,1017.3561 2.04831,-4.9939 0,40 -2.070407,-5.1928 z"
       id="rect3773"
       style="fill:url(#linearGradient3781);fill-opacity:1;fill-rule:nonzero;stroke:none" />
    <path
       d="m 24,1072.3622 6,0 c 5.54,0 10,-4.46 10,-10 l 0,-10 c 0,-5.54 -4.46,-10 -10,-10 l -6.1,0 2,1 3.7563,0 c 5.1707,0 9.3437,4.1731 9.3437,9.3438 l 0,9.3124 c 0,5.1707 -4.173,9.3438 -9.3437,9.3438 l -3.6563,0 z"
       id="rect3818"
       style="fill:#404040;fill-opacity:1;fill-rule:nonzero;stroke:none" />
    <path
       d="m 23.9,1022.3622 6.1,0 c 5.54,0 10,-4.46 10,-10 l 0,-10 c 0,-5.54 -4.46,-10 -10,-10 l -6,0 2,1 3.6563,0 c 5.1707,0 9.3437,4.17308 9.3437,9.3438 l 0,9.3125 c 0,5.1706 -4.173,9.3437 -9.3437,9.3437 l -3.7563,0 z"
       id="rect3818-6"
       style="fill:#404040;fill-opacity:1;fill-rule:nonzero;stroke:none" />
    <path
       d="m 26,1043.3621 -16,0 c -5.54,0 -10,-4.46 -10,-10 l 0,-1.9998 c 0,-5.54 4.4608,-9.9077 10,-10 l 16,0 -2,1 -13.6563,0 c -5.1707,0 -9.3437,4.1731 -9.3437,9.3438 l 0,1.3122 c 0,5.1707 4.173,9.3438 9.3437,9.3438 l 13.6563,0 z"
       id="rect3818-3"
       style="fill:#404040;fill-opacity:1;fill-rule:nonzero;stroke:none" />
  </g>
</svg>
