<?xml version="1.0" encoding="UTF-8" standalone="no"?>
<!-- Created with Inkscape (http://www.inkscape.org/) -->

<svg
   xmlns:dc="http://purl.org/dc/elements/1.1/"
   xmlns:cc="http://creativecommons.org/ns#"
   xmlns:rdf="http://www.w3.org/1999/02/22-rdf-syntax-ns#"
   xmlns:svg="http://www.w3.org/2000/svg"
   xmlns="http://www.w3.org/2000/svg"
   xmlns:xlink="http://www.w3.org/1999/xlink"
   version="1.1"
   width="40"
   height="40"
   id="svg2">
  <defs
     id="defs4">
    <linearGradient
       id="linearGradient3978">
      <stop
         id="stop3980"
         style="stop-color:#000000;stop-opacity:0.93000001"
         offset="0" />
      <stop
         id="stop3982"
         style="stop-color:#000000;stop-opacity:0.82999998"
         offset="1" />
    </linearGradient>
    <linearGradient
       x1="19.997864"
       y1="30.203125"
       x2="19.997864"
       y2="0.453125"
       id="linearGradient4029"
       xlink:href="#linearGradient3978"
       gradientUnits="userSpaceOnUse"
       gradientTransform="translate(-1e-7,1022.3623)" />
  </defs>
  <metadata
     id="metadata7">
    <rdf:RDF>
      <cc:Work
         rdf:about="">
        <dc:format>image/svg+xml</dc:format>
        <dc:type
           rdf:resource="http://purl.org/dc/dcmitype/StillImage" />
        <dc:title></dc:title>
      </cc:Work>
    </rdf:RDF>
  </metadata>
  <g
     transform="translate(0,-1012.3622)"
     id="layer1">
    <path
       d="m 19.53125,1012.9684 c -5.560689,0 -10.0625001,4.4706 -10.0625001,10.0313 l 0,15.3625 0,3.4687 0,0.1875 c 0,5.1706 -4.173084,9.3438 -9.34375,9.3438 l -9.3124999,0 c -5.170666,0 -9.34375,-4.1732 -9.34375,-9.3438 l 0,-3.6562 -1,-1 0,15 29.0624999,0 0.9375001,0 19.96875,0 0,-0.031 29.15625,0 0,-15 -1,1 0,3.6563 c 0,5.1706 -4.173084,9.3437 -9.34375,9.3437 l -9.3125,0 c -5.170666,0 -9.34375,-4.1731 -9.34375,-9.3437 0.02425,-1.2343 -0.109839,-2.5944 -0.125,-3.7813 l 0,-15.2062 c 0,-5.5607 -4.501811,-10.0294 -10.0625,-10.0313 z"
       id="rect3918"
       style="fill:url(#linearGradient4029);fill-opacity:1;fill-rule:nonzero;stroke:none" />
    <path
       d="m -20,1036.3622 0,6 c 0,5.54 4.46,10 10.0000001,10 l 9.9999999,0 c 5.54,0 10,-4.46 10,-10 l 0,-6.1 -1,2 0,3.7563 c 0,5.1707 -4.173084,9.3437 -9.34375,9.3437 l -9.3124999,0 C -14.826917,1051.3622 -19,1047.1892 -19,1042.0185 l 0,-3.6563 z"
       id="rect3818"
       style="fill:#404040;fill-opacity:1;fill-rule:nonzero;stroke:none" />
    <path
       d="m 30,1036.2622 0,6.1 c 0,5.54 4.46,10 10,10 l 10,0 c 5.54,0 10,-4.46 10,-10 l 0,-6 -1,2 0,3.6563 c 0,5.1707 -4.173084,9.3437 -9.34375,9.3437 l -9.3125,0 c -5.170667,0 -9.34375,-4.173 -9.34375,-9.3437 l 0,-3.7563 z"
       id="rect3818-6"
       style="fill:#404040;fill-opacity:1;fill-rule:nonzero;stroke:none" />
    <path
       d="m 9.0001247,1038.3622 0,-16 c 0,-5.54 4.4599993,-10 10.0000003,-10 l 1.99975,0 c 5.54,0 9.907679,4.4608 10,10 l 0,16 -1,-2 0,-13.6563 c 0,-5.1707 -4.173084,-9.3437 -9.34375,-9.3437 l -1.31225,0 c -5.170667,0 -9.34375,4.173 -9.34375,9.3437 l 0,13.6563 z"
       id="rect3818-3"
       style="fill:#404040;fill-opacity:1;fill-rule:nonzero;stroke:none" />
  </g>
</svg>
