<svg xmlns="http://www.w3.org/2000/svg" xmlns:xlink="http://www.w3.org/1999/xlink" height="240" width="90" version="1.1"><defs><linearGradient id="linearGradient3184-3" y2="25.02" gradientUnits="userSpaceOnUse" x2="62.46" y1="25.02" x1="1.25"><stop stop-color="#f0f0f0" offset="0"/><stop stop-color="#f0f0f0" offset="0.02"/><stop stop-color="#b9b9b9" offset="0.32"/><stop stop-color="#b9b9b9" offset="1"/></linearGradient><linearGradient id="linearGradient3223" y2="25.02" gradientUnits="userSpaceOnUse" x2="62.46" gradientTransform="translate(0.0432913,-0.0134993)" y1="25.02" x1="1.25"><stop stop-color="#000" stop-opacity="0" offset="0"/><stop stop-color="#000" stop-opacity="0" offset="0.22"/><stop stop-color="#000" stop-opacity="0.60000002" offset="0.52"/><stop stop-color="#000" stop-opacity="0.60000002" offset="1"/></linearGradient><linearGradient id="linearGradient3057" y2="20.13" gradientUnits="userSpaceOnUse" x2="40.25" gradientTransform="matrix(1.7621091,0,0,6.2437827,19.05903,-6.780775)" y1="20.13" x1="39.06"><stop stop-color="#000" stop-opacity="0" offset="0"/><stop stop-color="#000" offset="1"/></linearGradient><linearGradient id="linearGradient3060" y2="0.45" gradientUnits="userSpaceOnUse" x2="20" gradientTransform="matrix(0,-1,1,0,59.994821,236.44884)" y1="30.2" x1="20"><stop stop-color="#000" stop-opacity="0.63" offset="0"/><stop stop-color="#000" stop-opacity="0.63" offset="1"/></linearGradient><linearGradient id="linearGradient3088" y2="25.02" xlink:href="#linearGradient3184-3" gradientUnits="userSpaceOnUse" x2="62.46" y1="25.02" x1="1.25"/><linearGradient id="linearGradient3090" y2="25.02" xlink:href="#linearGradient3223" gradientUnits="userSpaceOnUse" x2="62.46" gradientTransform="translate(0.0432913,-0.0134993)" y1="25.02" x1="1.25"/></defs><g stroke-linejoin="round" stroke-opacity="0.5" fill-rule="nonzero" transform="translate(0,-1.5028849)" stroke="#808080" stroke-linecap="round"><g transform="matrix(0.9285407,0,0,0.9285407,-0.70569093,133.24723)"><path fill="url(#linearGradient3088)" d="m31.23 0.25c5.69-0.01 11.37 6.09 16.55 8.93 5.73 3.14 14.7-1.02 14.68 16.24-0.02 17.27-8.83 13.61-14.68 16.4-5.17 2.46-11.02 7.7-16.54 7.96-3.9 0.18-8.92-0.04-8.92-0.04s-21.06 0.1-21.06-24.79 21.06-24.7 21.06-24.7 4.98 0.01 8.92 0z"/><path opacity="0.4" fill="url(#linearGradient3090)" d="m31.28 0.24c5.69-0.01 11.37 6.09 16.55 8.93 5.73 3.14 14.7-1.02 14.68 16.24s-8.83 13.61-14.68 16.4c-5.17 2.46-11.02 7.7-16.54 7.96-3.9 0.18-8.92-0.04-8.92-0.04s-21.06 0.1-21.06-24.79 21.06-24.7 21.06-24.7 4.98 0.01 8.92 0z"/></g><g transform="matrix(0.9285407,0,0,0.9285407,-0.70569093,63.247232)"><path fill="url(#linearGradient3088)" d="m31.23 0.25c5.69-0.01 11.37 6.09 16.55 8.93 5.73 3.14 14.7-1.02 14.68 16.24-0.02 17.27-8.83 13.61-14.68 16.4-5.17 2.46-11.02 7.7-16.54 7.96-3.9 0.18-8.92-0.04-8.92-0.04s-21.06 0.1-21.06-24.79 21.06-24.7 21.06-24.7 4.98 0.01 8.92 0z"/><path opacity="0.4" fill="url(#linearGradient3090)" d="m31.28 0.24c5.69-0.01 11.37 6.09 16.55 8.93 5.73 3.14 14.7-1.02 14.68 16.24s-8.83 13.61-14.68 16.4c-5.17 2.46-11.02 7.7-16.54 7.96-3.9 0.18-8.92-0.04-8.92-0.04s-21.06 0.1-21.06-24.79 21.06-24.7 21.06-24.7 4.98 0.01 8.92 0z"/></g></g><path fill-rule="nonzero" fill="url(#linearGradient3060)" d="m75-15.95 1 1 3.6562 0c5.17 0 9.3438 4.1738 9.3438 9.3438v9.3125c0 5.17-4.1738 9.3125-9.3438 9.3125h-49.641c-5.56 0-10.031 4.5025-10.031 10.062-0.00028 3.9344-0.00012 93.405 0 97.875-0.000123 4.4697-0.000271 92.003 0 95.938 0.000383 5.56 4.4712 10.062 10.031 10.062h49.641c5.17 0 9.3438 4.1738 9.3438 9.3438v9.2812c0 5.17-4.1738 9.3438-9.3438 9.3438h-3.6562l-1 1h15v-134.97-136.91z"/><path fill-rule="nonzero" fill="url(#linearGradient3057)" d="m87.934 10.062 2.05-6.353 0 232.23-2.07-6.106z"/><path fill-rule="nonzero" fill="#404040" d="m73.984 255.95 6 0c5.54 0 10-4.46 10-10v-10c0-5.54-4.46-10-10-10h-6.1l2 1h3.76c5.17 0 9.34 4.17 9.34 9.34v9.31c0 5.17-4.17 9.34-9.34 9.34h-3.66z"/><path fill-rule="nonzero" fill="#404040" d="m73.884 14.053 6.1 0c5.54 0 10-4.46 10-10v-10c0-5.54-4.46-10-10-10h-6l2 1h3.66c5.17 0 9.34 4.17 9.34 9.34v9.31c0 5.17-4.17 9.34-9.34 9.34h-3.76z"/><path fill-rule="nonzero" fill="#404040" d="m75.984 226.95-46.154 0c-5.54 0-10-4.46-10-10v-96.17c0.06685-1.1042 1.0725-1.4293 1 0.34v95.48c0 5.17 4.17 9.34 9.34 9.34h43.814z"/><path fill-rule="nonzero" fill="#404040" d="m75.984 13.042-46.154 0c-5.54 0-10 4.46-10 10v98.078c0.06685 1.1042 1.0725 1.4293 1-0.34v-97.388c0-5.17 4.17-9.34 9.34-9.34h43.814z"/></svg>