<?xml version="1.0" encoding="UTF-8" standalone="no"?>
<!-- Created with Inkscape (http://www.inkscape.org/) -->

<svg
   xmlns:dc="http://purl.org/dc/elements/1.1/"
   xmlns:cc="http://creativecommons.org/ns#"
   xmlns:rdf="http://www.w3.org/1999/02/22-rdf-syntax-ns#"
   xmlns:svg="http://www.w3.org/2000/svg"
   xmlns="http://www.w3.org/2000/svg"
   xmlns:sodipodi="http://sodipodi.sourceforge.net/DTD/sodipodi-0.dtd"
   xmlns:inkscape="http://www.inkscape.org/namespaces/inkscape"
   id="svg7384"
   height="16"
   width="16"
   version="1.1"
   inkscape:version="0.48.3.1 r9886"
   sodipodi:docname="computer-symbolic.svg">
  <defs
     id="defs12" />
  <sodipodi:namedview
     pagecolor="#ffffff"
     bordercolor="#666666"
     borderopacity="1"
     objecttolerance="10"
     gridtolerance="10"
     guidetolerance="10"
     inkscape:pageopacity="0"
     inkscape:pageshadow="2"
     inkscape:window-width="1600"
     inkscape:window-height="845"
     id="namedview10"
     showgrid="false"
     inkscape:zoom="14.75"
     inkscape:cx="-21.627119"
     inkscape:cy="8"
     inkscape:window-x="0"
     inkscape:window-y="27"
     inkscape:window-maximized="1"
     inkscape:current-layer="g3600" />
  <metadata
     id="metadata90">
    <rdf:RDF>
      <cc:Work
         rdf:about="">
        <dc:format>image/svg+xml</dc:format>
        <dc:type
           rdf:resource="http://purl.org/dc/dcmitype/StillImage" />
        <dc:title>Gnome Symbolic Icon Theme</dc:title>
      </cc:Work>
    </rdf:RDF>
  </metadata>
  <title
     id="title9167">Gnome Symbolic Icon Theme</title>
  <g
     id="layer10"
     transform="translate(-162,-338)">
    <g
       id="g3600"
       transform="translate(114,-60)">
      <path
         id="rect11749-5-91"
         style="block-progression:tb;text-indent:0;color:#bebebe;text-transform:none;fill:#ffffff;fill-opacity:1"
         d="m51.188 398c-1.202 0-2.188 0.99-2.188 2.19v5.625c0 1.19 0.986 2.18 2.188 2.18h9.625c1.201 0 2.187-0.99 2.187-2.19v-5.625c0-1.19-0.986-2.18-2.188-2.18h-9.625zm0 2h9.625c0.123 0 0.187 0.06 0.187 0.19v5.625c0 0.12-0.064 0.18-0.188 0.18h-9.625c-0.123 0-0.187-0.06-0.187-0.19v-5.625c0-0.12 0.064-0.18 0.188-0.18z" />
      <path
         id="path11751-2-7"
         style="block-progression:tb;text-indent:0;color:#bebebe;text-transform:none;fill:#ffffff;fill-opacity:1"
         d="m53.906 409.03a0.50219 0.50219 0 1 0 0.09375 1h4a0.50005 0.50005 0 1 0 0 -1h-4a0.50005 0.50005 0 0 0 -0.09375 0z" />
      <path
         id="rect4340"
         style="block-progression:tb;text-indent:0;color:#bebebe;text-transform:none;fill:#ffffff;fill-opacity:1"
         d="m50.906 411a1.0001 1.0001 0 0 0 -0.625 0.28125l-1 1a1.0001 1.0001 0 0 0 0.719 1.72h12a1.0001 1.0001 0 0 0 0.71875 -1.7188l-1-1a1.0001 1.0001 0 0 0 -0.719 -0.28h-10a1.0001 1.0001 0 0 0 -0.09375 0z" />
    </g>
  </g>
</svg>
