<?xml version="1.0" encoding="UTF-8" standalone="no"?>
<!-- Created with Inkscape (http://www.inkscape.org/) -->

<svg
   xmlns:dc="http://purl.org/dc/elements/1.1/"
   xmlns:cc="http://creativecommons.org/ns#"
   xmlns:rdf="http://www.w3.org/1999/02/22-rdf-syntax-ns#"
   xmlns:svg="http://www.w3.org/2000/svg"
   xmlns="http://www.w3.org/2000/svg"
   xmlns:sodipodi="http://sodipodi.sourceforge.net/DTD/sodipodi-0.dtd"
   xmlns:inkscape="http://www.inkscape.org/namespaces/inkscape"
   width="30"
   height="30"
   id="svg2"
   version="1.1"
   inkscape:version="0.48.3.1 r9886"
   sodipodi:docname="round_border.svg">
  <defs
     id="defs4" />
  <sodipodi:namedview
     id="base"
     pagecolor="#ffffff"
     bordercolor="#666666"
     borderopacity="1.0"
     inkscape:pageopacity="0.0"
     inkscape:pageshadow="2"
     inkscape:zoom="16"
     inkscape:cx="9.6995357"
     inkscape:cy="11.726959"
     inkscape:document-units="px"
     inkscape:current-layer="layer1"
     showgrid="false"
     inkscape:window-width="1600"
     inkscape:window-height="873"
     inkscape:window-x="0"
     inkscape:window-y="-3"
     inkscape:window-maximized="1" />
  <metadata
     id="metadata7">
    <rdf:RDF>
      <cc:Work
         rdf:about="">
        <dc:format>image/svg+xml</dc:format>
        <dc:type
           rdf:resource="http://purl.org/dc/dcmitype/StillImage" />
        <dc:title />
      </cc:Work>
    </rdf:RDF>
  </metadata>
  <g
     inkscape:label="Ebene 1"
     inkscape:groupmode="layer"
     id="layer1"
     transform="translate(0,-1022.3622)">
    <path
       style="fill:#000000;fill-opacity:1;fill-rule:nonzero;stroke:none"
       d="m 0,15 0,15 30,0 0,-15 -1,1 0,3.65625 C 29,24.82685 24.826916,29 19.65625,29 l -9.3125,0 C 5.173084,29 1,24.82685 1,19.65625 L 1,16 z"
       transform="translate(0,1022.3622)"
       id="rect2985"
       inkscape:connector-curvature="0"
       sodipodi:nodetypes="cccccsssscc" />
    <path
       style="fill:#404040;fill-opacity:1;fill-rule:nonzero;stroke:none"
       d="m 0,14 0,6 c 0,5.54 4.4600004,10 10,10 l 10,0 c 5.54,0 10,-4.46 10,-10 l 0,-6 -1,2 0,3.65625 C 29,24.82695 24.826916,29 19.65625,29 l -9.3125,0 C 5.1730832,29 1,24.82695 1,19.65625 L 1,16 z"
       transform="translate(0,1022.3622)"
       id="rect3818"
       inkscape:connector-curvature="0"
       sodipodi:nodetypes="cssssccsssscc" />
  </g>
</svg>
