<svg xmlns="http://www.w3.org/2000/svg" xmlns:xlink="http://www.w3.org/1999/xlink" height="27" width="76" version="1.1"><defs><radialGradient id="radialGradient68155-2-3" gradientUnits="userSpaceOnUse" cy="488" cx="49" gradientTransform="matrix(1,0,0,0.3486842,0,317.8421)" r="38"><stop stop-color="#FFF" offset="0"/><stop stop-color="#FFF" stop-opacity="0" offset="1"/></radialGradient><radialGradient id="radialGradient68157-0-8" gradientUnits="userSpaceOnUse" cy="487.5" cx="50.5" r="10.5"><stop stop-color="#FFF" offset="0"/><stop stop-color="#FFF" stop-opacity="0" offset="1"/></radialGradient></defs><g transform="translate(-337,-518.86218)"><g transform="translate(326,44.862171)"><rect opacity="0.49" rx="0" ry="0" height="2" width="76" y="487" x="11" fill="url(#radialGradient68155-2-3)" color="#000000"/><path opacity="0.43" d="M61 487.5c0 5.8-4.7 10.5-10.5 10.5s-10.5-4.7-10.5-10.5 4.7-10.5 10.5-10.5 10.5 4.7 10.5 10.5z" fill-rule="nonzero" transform="matrix(1.2857143,0,0,1.2857143,-14.428572,-139.28571)" fill="url(#radialGradient68157-0-8)" color="#000000"/><path d="M61 487.5c0 5.8-4.7 10.5-10.5 10.5s-10.5-4.7-10.5-10.5 4.7-10.5 10.5-10.5 10.5 4.7 10.5 10.5z" fill-rule="nonzero" transform="matrix(0.43589747,0,0,0.43589747,28.487179,275)" fill="#FFF" color="#000000"/></g></g></svg>
