<svg xmlns="http://www.w3.org/2000/svg" xmlns:xlink="http://www.w3.org/1999/xlink" height="64" width="64" version="1.1"><defs><linearGradient id="linearGradient3256" y2="24.99" gradientUnits="userSpaceOnUse" x2="24.73" gradientTransform="matrix(-0.18289332,0,0,0.2,4.5392929,27.002147)" y1="24.99" x1="1"><stop stop-color="#f0f0f0" offset="0"/><stop stop-color="#b9b9b9" offset="1"/></linearGradient><linearGradient id="linearGradient3258" y2="24.99" gradientUnits="userSpaceOnUse" x2="24.48" gradientTransform="matrix(-0.18289332,0,0,0.2,4.5392929,27.002147)" y1="24.99" x1="1.25"><stop stop-color="#000" stop-opacity="0" offset="0"/><stop stop-color="#000" stop-opacity="0" offset="0.74"/><stop stop-color="#000" stop-opacity="0.6" offset="1"/></linearGradient></defs><g transform="translate(0,-6.5000663)"><path stroke-linejoin="miter" d="m0.06 27.05s4.25-0.05 4.25 4.94c0 4.99-4.25 4.96-4.25 4.96" stroke-opacity="0.5" stroke="#808080" stroke-linecap="butt" stroke-miterlimit="4" stroke-dasharray="none" stroke-width="0.09" fill="url(#linearGradient3256)"/><path opacity="0.5" fill="url(#linearGradient3258)" d="m0.06 27.05s4.25-0.05 4.25 4.94c0 4.99-4.25 4.96-4.25 4.96"/></g><g transform="translate(0,6.5000657)"><path stroke-linejoin="miter" d="m0.06 27.05s4.25-0.05 4.25 4.94c0 4.99-4.25 4.96-4.25 4.96" stroke-opacity="0.5" stroke="#808080" stroke-linecap="butt" stroke-miterlimit="4" stroke-dasharray="none" stroke-width="0.09" fill="url(#linearGradient3256)"/><path opacity="0.5" fill="url(#linearGradient3258)" d="m0.06 27.05s4.25-0.05 4.25 4.94c0 4.99-4.25 4.96-4.25 4.96"/></g><g transform="translate(0,-19.499868)"><path stroke-linejoin="miter" d="m0.06 27.05s4.25-0.05 4.25 4.94c0 4.99-4.25 4.96-4.25 4.96" stroke-opacity="0.5" stroke="#808080" stroke-linecap="butt" stroke-miterlimit="4" stroke-dasharray="none" stroke-width="0.09" fill="url(#linearGradient3256)"/><path opacity="0.5" fill="url(#linearGradient3258)" d="m0.06 27.05s4.25-0.05 4.25 4.94c0 4.99-4.25 4.96-4.25 4.96"/></g><g transform="translate(0,19.500132)"><path stroke-linejoin="miter" d="m0.06 27.05s4.25-0.05 4.25 4.94c0 4.99-4.25 4.96-4.25 4.96" stroke-opacity="0.5" stroke="#808080" stroke-linecap="butt" stroke-miterlimit="4" stroke-dasharray="none" stroke-width="0.09" fill="url(#linearGradient3256)"/><path opacity="0.5" fill="url(#linearGradient3258)" d="m0.06 27.05s4.25-0.05 4.25 4.94c0 4.99-4.25 4.96-4.25 4.96"/></g></svg>
