<svg xmlns="http://www.w3.org/2000/svg" xmlns:xlink="http://www.w3.org/1999/xlink" height="64" width="64" version="1.1"><defs><linearGradient id="linearGradient3966" y2="24.99" gradientUnits="userSpaceOnUse" x2="24.73" gradientTransform="matrix(-0.18289332,0,0,0.2,4.5392929,20.502081)" y1="24.99" x1="1"><stop stop-color="#abcef3" offset="0"/><stop stop-color="#76b0ec" offset="1"/></linearGradient><linearGradient id="linearGradient3968" y2="24.99" gradientUnits="userSpaceOnUse" x2="24.48" gradientTransform="matrix(-0.18289332,0,0,0.2,4.5392929,20.502081)" y1="24.99" x1="1.25"><stop stop-color="#000" stop-opacity="0" offset="0"/><stop stop-color="#000" stop-opacity="0" offset="0.74"/><stop stop-color="#000" stop-opacity="0.6" offset="1"/></linearGradient><linearGradient id="linearGradient3970" y2="24.99" gradientUnits="userSpaceOnUse" x2="24.73" gradientTransform="matrix(-0.18289332,0,0,0.2,4.5392929,27.002147)" y1="24.99" x1="1"><stop stop-color="#f0f0f0" offset="0"/><stop stop-color="#b9b9b9" offset="1"/></linearGradient><linearGradient id="linearGradient3972" y2="24.99" gradientUnits="userSpaceOnUse" x2="24.48" gradientTransform="matrix(-0.18289332,0,0,0.2,4.5392929,27.002147)" y1="24.99" x1="1.25"><stop stop-color="#000" stop-opacity="0" offset="0"/><stop stop-color="#000" stop-opacity="0" offset="0.74"/><stop stop-color="#000" stop-opacity="0.6" offset="1"/></linearGradient></defs><g transform="matrix(-1,0,0,1,64,0)"><path stroke-linejoin="miter" d="m0.06 20.55s4.25-0.05 4.25 4.94c0 4.99-4.25 4.96-4.25 4.96" stroke-opacity="0.5" stroke="#808080" stroke-linecap="butt" stroke-miterlimit="4" stroke-dasharray="none" stroke-width="0.09" fill="url(#linearGradient3966)"/><path opacity="0.5" fill="url(#linearGradient3968)" d="m0.06 20.55s4.25-0.05 4.25 4.94c0 4.99-4.25 4.96-4.25 4.96"/><g transform="translate(0,6.5000657)"><path stroke-linejoin="miter" d="m0.06 27.05s4.25-0.05 4.25 4.94c0 4.99-4.25 4.96-4.25 4.96" stroke-opacity="0.5" stroke="#808080" stroke-linecap="butt" stroke-miterlimit="4" stroke-dasharray="none" stroke-width="0.09" fill="url(#linearGradient3970)"/><path opacity="0.5" fill="url(#linearGradient3972)" d="m0.06 27.05s4.25-0.05 4.25 4.94c0 4.99-4.25 4.96-4.25 4.96"/></g></g></svg>
