<svg xmlns="http://www.w3.org/2000/svg" enable-background="new 0 0 16 16" xml:space="preserve" height="32" viewBox="0 0 23.272727 23.272727" width="32" version="1.0" y="0px" x="0px"><style>.s0{block-progression:tb;direction:ltr;enable-background:new;text-align:start;text-indent:0;text-transform:none;}</style><defs><filter id="filter16494-4" width="1.4197969" y="-0.20903821" x="-0.20989846" height="1.4180764" color-interpolation-filters="sRGB"><feGaussianBlur stdDeviation="1.3282637"/></filter><filter id="filter16524-9" width="1.425958" y="-0.21305652" x="-0.212979" height="1.426113" color-interpolation-filters="sRGB"><feGaussianBlur stdDeviation="0.71020915"/></filter><radialGradient id="radialGradient3780" gradientUnits="userSpaceOnUse" cy="5.8191" cx="7.6583" gradientTransform="matrix(1.0369596,0,0,1.0412228,-1.064672,-0.67583064)" r="8.6929"><stop stop-color="#f0f0f0" offset="0"/><stop stop-color="#cdcdcd" offset="1"/></radialGradient></defs><g fill-rule="nonzero" transform="translate(4.7533483,2.8238929)"><path opacity="0.52994014" stroke-linejoin="miter" d="M6.875-0.125c-4.3533 0-7.875 3.5324-7.875 7.9062s3.5217 7.9375 7.875 7.9375 7.875-3.5637 7.875-7.9375-3.5217-7.9062-7.875-7.9062z" transform="translate(0,1.0182338)" stroke-dashoffset="0" filter="url(#filter16494-4)" stroke="#000" stroke-linecap="butt" stroke-miterlimit="4" stroke-dasharray="none" stroke-width="2.18181825" fill="#000"/><path id="path2394-32" d="m-1.0063 7.7828c0-4.3738 3.5296-7.92 7.8829-7.92s7.8829 3.5462 7.8829 7.92-3.5296 7.92-7.8829 7.92-7.8829-3.5462-7.8829-7.92z" clip-rule="evenodd" stroke-miterlimit="4" stroke-width="0" fill="url(#radialGradient3780)"/><path d="m44.219 764.19 0 1c-0.02191 0.28075 0.07051 0.55537 0.28125 0.75l2.2812 2.2812-2.2812 2.25c-0.18819 0.18817-0.28125 0.45346-0.28125 0.71875v1h1c0.26529 0 0.53059-0.0931 0.71875-0.28125l2.281-2.29 2.281 2.29c0.18816 0.18815 0.45345 0.28124 0.71875 0.28125h1v-1c-0.000008-0.2653-0.09306-0.53058-0.28125-0.71875l-2.25-2.25 2.2812-2.2812c0.21566-0.19935 0.25-0.46353 0.25-0.75v-1h-1c-0.24083 0.007-0.42188 0.082-0.6875 0.3125l-2.3125 2.2812-2.282-2.28c-0.17763-0.18392-0.43255-0.3013-0.6875-0.3125-0.01046-0.00046-0.02088-0.00012-0.03125 0h-1z" transform="translate(0,1.3535534)" filter="url(#filter16524-9)" fill="#000" class="s0"/><path id="path27279-0-5" d="m3.9626 4.9028 0.72 0c0.00747-0.0000864 0.014969-0.0003312 0.0225 0 0.18356 0.00806 0.36711 0.092578 0.495 0.225l1.6425 1.6425 1.665-1.6425c0.19125-0.16596 0.3216-0.21996 0.495-0.225h0.72v0.72c0 0.20626-0.024725 0.39647-0.18 0.54l-1.6425 1.6425 1.62 1.62c0.1355 0.13548 0.20249 0.32648 0.2025 0.5175v0.72h-0.72c-0.19102-0.000007-0.38202-0.06703-0.5175-0.2025l-1.6425-1.6425-1.6425 1.6425c-0.13548 0.1355-0.32649 0.2025-0.5175 0.2025h-0.72v-0.72c-0.0000021-0.19101 0.067003-0.38202 0.2025-0.5175l1.6425-1.62-1.6425-1.6425c-0.15173-0.14013-0.21828-0.33786-0.2025-0.54v-0.72z" fill="#999" class="s0"/></g></svg>