<svg xmlns="http://www.w3.org/2000/svg" xml:space="preserve" height="32" width="32" version="1.0" viewBox="0 0 23.272727 23.272727"><style>.s0{block-progression:tb;direction:ltr;enable-background:new;text-align:start;text-indent:0;text-transform:none;}</style><defs><filter id="filter16494-4" height="1.4180764" width="1.4197969" color-interpolation-filters="sRGB" y="-0.20903821" x="-0.20989846"><feGaussianBlur stdDeviation="1.3282637"/></filter><filter id="filter16524-9" height="1.426113" width="1.425958" color-interpolation-filters="sRGB" y="-0.21305652" x="-0.212979"><feGaussianBlur stdDeviation="0.71020915"/></filter><radialGradient id="radialGradient3780" gradientUnits="userSpaceOnUse" cy="5.8191" cx="7.6583" gradientTransform="matrix(1.0369596,0,0,1.0412228,-1.064672,-0.67583064)" r="8.6929"><stop stop-color="#646464" offset="0"/><stop stop-color="#000" offset="1"/></radialGradient></defs><g transform="translate(4.7533483,2.8238929)"><path opacity="0.52994014" stroke-linejoin="miter" d="M6.875-0.125c-4.3533 0-7.875 3.5324-7.875 7.9062s3.5217 7.9062 7.875 7.9062 7.875-3.5324 7.875-7.9062-3.5217-7.9062-7.875-7.9062z" fill-rule="nonzero" transform="translate(0,1.0182338)" stroke-dashoffset="0" filter="url(#filter16494-4)" stroke="#000" stroke-linecap="butt" stroke-miterlimit="4" stroke-dasharray="none" stroke-width="2.18181825" fill="#000"/><path d="m-1.0063 7.7828c0-4.3738 3.5296-7.92 7.8829-7.92s7.8829 3.5462 7.8829 7.92-3.5296 7.92-7.8829 7.92-7.8829-3.5462-7.8829-7.92z" fill-rule="nonzero" stroke-miterlimit="4" stroke-width="0" fill="url(#radialGradient3780)"/><g fill="#FFF" transform="matrix(0.72000001,0,0,0.72000001,1.6395106,1.8988132)"><g transform="translate(-41,-760)" fill-rule="nonzero"><path d="m44.219 764.19 0 1c-0.02191 0.28075 0.07051 0.55537 0.28125 0.75l2.2812 2.2812-2.2812 2.25c-0.18819 0.18817-0.28125 0.45346-0.28125 0.71875v1h1c0.26529 0 0.53059-0.0931 0.71875-0.28125l2.281-2.29 2.281 2.29c0.18816 0.18815 0.45345 0.28124 0.71875 0.28125h1v-1c-0.000008-0.2653-0.09306-0.53058-0.28125-0.71875l-2.25-2.25 2.2812-2.2812c0.21566-0.19935 0.25-0.46353 0.25-0.75v-1h-1c-0.24083 0.007-0.42188 0.082-0.6875 0.3125l-2.3125 2.2812-2.282-2.28c-0.17763-0.18392-0.43255-0.3013-0.6875-0.3125-0.01046-0.00046-0.02088-0.00012-0.03125 0h-1z" transform="translate(0,1.3535534)" filter="url(#filter16524-9)" fill="#000" class="s0"/><path fill="#FFF" d="m44.226 764.17 1 0c0.01037-0.00012 0.02079-0.00046 0.03125 0 0.25495 0.0112 0.50987 0.12858 0.6875 0.3125l2.2812 2.2812 2.3125-2.2812c0.26562-0.2305 0.44667-0.3055 0.6875-0.3125h1v1c0 0.28647-0.03434 0.55065-0.25 0.75l-2.2812 2.2812 2.25 2.25c0.18819 0.18817 0.28124 0.45345 0.28125 0.71875v1h-1c-0.2653-0.00001-0.53059-0.0931-0.71875-0.28125l-2.2812-2.2812-2.2812 2.2812c-0.18816 0.18819-0.45346 0.28125-0.71875 0.28125h-1v-1c-0.000003-0.26529 0.09306-0.53058 0.28125-0.71875l2.2812-2.25-2.2812-2.2812c-0.21074-0.19463-0.30316-0.46925-0.28125-0.75v-1z" class="s0"/></g></g></g></svg>