<svg xmlns="http://www.w3.org/2000/svg" xml:space="preserve" height="32" width="32" version="1.0" viewBox="0 0 23.272727 23.272727"><style>.s0{block-progression:tb;direction:ltr;enable-background:new;text-align:start;text-indent:0;text-transform:none;}</style><defs><filter id="filter16494-4" height="1.4180764" width="1.4197969" color-interpolation-filters="sRGB" y="-0.20903821" x="-0.20989846"><feGaussianBlur stdDeviation="1.3282637"/></filter><filter id="filter16524-9" height="1.426113" width="1.425958" color-interpolation-filters="sRGB" y="-0.21305652" x="-0.212979"><feGaussianBlur stdDeviation="0.71020915"/></filter><radialGradient id="radialGradient3780" gradientUnits="userSpaceOnUse" cy="5.8191" cx="7.6583" gradientTransform="matrix(1.0369596,0,0,1.0412228,-1.064672,-0.67583064)" r="8.6929"><stop stop-color="#646464" offset="0"/><stop stop-color="#000" offset="1"/></radialGradient></defs><g transform="translate(4.7533483,2.8238929)" fill-rule="nonzero"><path opacity="0.52994014" stroke-linejoin="miter" d="M6.875-0.125c-4.3533 0-7.875 3.5324-7.875 7.9062s3.5217 7.9062 7.875 7.9062 7.875-3.5324 7.875-7.9062-3.5217-7.9062-7.875-7.9062z" transform="translate(0,1.0182338)" stroke-dashoffset="0" filter="url(#filter16494-4)" stroke="#000" stroke-linecap="butt" stroke-miterlimit="4" stroke-dasharray="none" stroke-width="2.18181825" fill="#000"/><path d="m-1.0063 7.7828c0-4.3738 3.5296-7.92 7.8829-7.92s7.8829 3.5462 7.8829 7.92-3.5296 7.92-7.8829 7.92-7.8829-3.5462-7.8829-7.92z" stroke-miterlimit="4" stroke-width="0" fill="url(#radialGradient3780)"/><path d="m3.9688 4.9062 0 0.71875c-0.015775 0.20214 0.035766 0.39112 0.1875 0.53125l1.6562 1.6563-1.6563 1.625c-0.1355 0.13548-0.1875 0.30899-0.1875 0.5v0.71875h0.71875c0.19101 0 0.36452-0.052 0.5-0.1875l1.6564-1.6555 1.6562 1.6565c0.13548 0.13547 0.30898 0.18749 0.5 0.1875h0.71875v-0.71875c-0.0000057-0.19102-0.052005-0.36452-0.1875-0.5l-1.625-1.625 1.625-1.6562c0.1552-0.1433 0.1875-0.3247 0.1875-0.531v-0.71875h-0.71875c-0.1734 0.0051-0.3088 0.0528-0.5 0.2188l-1.6562 1.6562-1.6563-1.6562c-0.1279-0.1324-0.2852-0.2107-0.4687-0.2188-0.00753-0.0003312-0.02378-0.0000864-0.03125 0h-0.71875z" transform="translate(0,1.3535534)" filter="url(#filter16524-9)" fill="#000" class="s0"/><path fill="#76b0ec" d="m3.9626 4.9028 0.72 0c0.00747-0.0000864 0.014969-0.0003312 0.0225 0 0.18356 0.00806 0.36711 0.092578 0.495 0.225l1.6425 1.6425 1.665-1.6425c0.19125-0.16596 0.3216-0.21996 0.495-0.225h0.72v0.72c0 0.20626-0.024725 0.39647-0.18 0.54l-1.6425 1.6425 1.62 1.62c0.1355 0.13548 0.20249 0.32648 0.2025 0.5175v0.72h-0.72c-0.19102-0.000007-0.38202-0.06703-0.5175-0.2025l-1.6425-1.6425-1.6425 1.6425c-0.13548 0.1355-0.32649 0.2025-0.5175 0.2025h-0.72v-0.72c-0.0000021-0.19101 0.067003-0.38202 0.2025-0.5175l1.6425-1.62-1.6425-1.6425c-0.15173-0.14013-0.21828-0.33786-0.2025-0.54v-0.72z" class="s0"/></g></svg>