<svg xmlns="http://www.w3.org/2000/svg" xmlns:xlink="http://www.w3.org/1999/xlink" height="28" width="28" version="1"><defs><linearGradient id="linearGradient5415"><stop stop-color="#e6e6e6" offset="0"/><stop stop-color="#e6e6e6" offset="0.9"/><stop stop-color="#FFF" offset="1"/></linearGradient><linearGradient id="linearGradient5286"><stop stop-color="#e6e6e6" offset="0"/><stop stop-color="#e6e6e6" stop-opacity="0.92" offset="0.5"/><stop stop-color="#FFF" offset="1"/></linearGradient><linearGradient id="linearGradient5386" x1="62.44" xlink:href="#linearGradient5286" gradientUnits="userSpaceOnUse" y1="40.38" gradientTransform="matrix(0.05201956,0.00455112,-0.00455112,0.05201956,40.352844,79.453911)" x2="70.62" y2="16.61"/><linearGradient id="linearGradient5389" x1="39.61" xlink:href="#linearGradient5286" gradientUnits="userSpaceOnUse" y1="30.55" gradientTransform="matrix(0.05201956,0.00455112,-0.00455112,0.05201956,40.352844,79.453911)" x2="41.32" y2="14.72"/><linearGradient id="linearGradient5392" x1="19.72" xlink:href="#linearGradient5286" gradientUnits="userSpaceOnUse" y1="41.26" gradientTransform="matrix(0.05201956,0.00455112,-0.00455112,0.05201956,40.352844,79.453911)" x2="20.65" y2="22.85"/><linearGradient id="linearGradient5395" x1="6.93" xlink:href="#linearGradient5286" gradientUnits="userSpaceOnUse" y1="51.05" gradientTransform="matrix(0.05201956,0.00455112,-0.00455112,0.05201956,40.352844,79.453911)" x2="6" y2="37.47"/><linearGradient id="linearGradient5398" x1="13.08" xlink:href="#linearGradient5286" gradientUnits="userSpaceOnUse" y1="123.3" gradientTransform="matrix(0.05201956,0.00455112,-0.00455112,0.05201956,40.352844,79.453911)" x2="41.4" y2="66.43"/><radialGradient id="radialGradient5401" gradientUnits="userSpaceOnUse" cy="110.74" cx="72.63" gradientTransform="matrix(0.07204969,-0.01139433,0.01262784,0.07984955,36.941758,77.602937)" r="37.15"><stop stop-color="#e6e6e6" offset="0"/><stop stop-color="#e6e6e6" offset="0.9"/><stop stop-color="#FFF" offset="1"/></radialGradient><radialGradient id="radialGradient5404" xlink:href="#linearGradient5415" gradientUnits="userSpaceOnUse" cy="31.77" cx="26.98" gradientTransform="matrix(0.05418575,-0.00124063,0.00236253,0.10318535,40.057482,78.193531)" r="7.35"/><radialGradient id="radialGradient5407" xlink:href="#linearGradient5415" gradientUnits="userSpaceOnUse" cy="44.65" cx="11.8" gradientTransform="matrix(0.0422413,-0.00671623,0.01299599,0.08173716,39.672774,78.397648)" r="7.16"/><radialGradient id="radialGradient5410" xlink:href="#linearGradient5415" gradientUnits="userSpaceOnUse" cy="24.09" cx="46.81" gradientTransform="matrix(0.05090435,0.01060124,-0.01852349,0.08894522,40.723908,78.484168)" r="8.5"/><radialGradient id="radialGradient5413" xlink:href="#linearGradient5415" gradientUnits="userSpaceOnUse" cy="8.84" cx="80.25" gradientTransform="matrix(0.03919176,0.02090915,-0.03393208,0.06360173,41.381514,79.379272)" r="16.94"/><filter id="filter5451" width="1" y="0" x="0" height="1" color-interpolation-filters="sRGB"><feFlood result="result1" flood-color="rgb(128,128,128)" flood-opacity="0"/><feBlend mode="normal" in2="SourceGraphic" result="result2"/><feComposite in2="SourceGraphic" k3="0" k2="1" k1="0" result="result3" k4="0" operator="arithmetic"/><feComposite operator="in" result="fbSourceGraphic" in2="SourceGraphic"/><feColorMatrix values="0" result="fbSourceGraphicAlpha" in="fbSourceGraphic"/><feFlood result="result1" flood-opacity="0" flood-color="rgb(128,128,128)" in="fbSourceGraphic"/><feBlend mode="normal" in2="fbSourceGraphic" result="result2"/><feComposite in2="fbSourceGraphic" k3="0" k2="1" k1="0" result="result4" k4="0" operator="arithmetic"/><feComposite operator="in" result="fbSourceGraphic" in2="fbSourceGraphic"/><feColorMatrix values="0" result="fbSourceGraphicAlpha" in="fbSourceGraphic"/><feFlood result="result1" flood-opacity="0" flood-color="rgb(128,128,128)" in="fbSourceGraphic"/><feBlend mode="normal" in2="fbSourceGraphic" result="result2"/><feComposite in2="fbSourceGraphic" k3="0" k2="1" k1="0" result="result5" k4="0" operator="arithmetic"/><feComposite operator="in" in2="fbSourceGraphic"/></filter></defs><g fill-rule="nonzero" transform="matrix(2.914897,0,0,2.914897,-110.63194,-227.48457)" stroke="#FFF" stroke-dasharray="none" stroke-miterlimit="4" stroke-width="0.03"><path d="m44.83 79.85c-1.28-0.11-1.68 1.69-0.96 1.75 0.72 0.06 2.24-1.64 0.96-1.75z" fill="url(#radialGradient5413)"/><path opacity="0.5" d="m44.83 79.85c-1.28-0.11-1.68 1.69-0.96 1.75 0.72 0.06 2.24-1.64 0.96-1.75z" fill="url(#linearGradient5386)"/><path fill="url(#radialGradient5401)" d="m42.98 84.61c0.02 0.44-0.38 0.63-0.73 0.31-1.11-1.01 2.08-1.18 1.98-2.43-0.08-1.04-3.25-1-3.75 0.57-0.34 1.06 0.77 2.67 2.06 2.79 0.64 0.06 1.42-0.45 1.62-1.17 0.15-0.55-1.2-0.44-1.19-0.07z" fill-rule="nonzero"/><path opacity="0.5" d="m42.98 84.61c0.02 0.44-0.38 0.63-0.73 0.31-1.11-1.01 2.08-1.18 1.98-2.43-0.08-1.04-3.25-1-3.75 0.57-0.34 1.06 0.77 2.67 2.06 2.79 0.64 0.06 1.42-0.45 1.62-1.17 0.15-0.55-1.2-0.44-1.19-0.07z" fill-rule="nonzero" filter="url(#filter5451)" fill="url(#linearGradient5398)"/><path d="m42.57 81.26c0.38 0.06 0.93-1.39 0.2-1.36-0.73 0.03-0.58 1.31-0.2 1.36z" fill="url(#radialGradient5410)"/><path opacity="0.5" d="m42.57 81.26c0.38 0.06 0.93-1.39 0.2-1.36-0.73 0.03-0.58 1.31-0.2 1.36z" fill="url(#linearGradient5389)"/><path d="m40.73 82.03c0.28-0.1 0.15-1.29-0.34-1.01-0.49 0.28 0.06 1.11 0.34 1.01z" fill="url(#radialGradient5407)"/><path opacity="0.5" d="m40.73 82.03c0.28-0.1 0.15-1.29-0.34-1.01-0.49 0.28 0.06 1.11 0.34 1.01z" fill="url(#linearGradient5395)"/><path d="m41.55 81.48c0.33-0.04 0.46-1.37-0.14-1.18-0.6 0.19-0.2 1.22 0.14 1.18z" fill="url(#radialGradient5404)"/><path opacity="0.5" d="m41.55 81.48c0.33-0.04 0.46-1.37-0.14-1.18-0.6 0.19-0.2 1.22 0.14 1.18z" fill="url(#linearGradient5392)"/></g></svg>
