<svg xmlns="http://www.w3.org/2000/svg" xmlns:xlink="http://www.w3.org/1999/xlink" height="28" width="28" version="1"><defs><linearGradient id="linearGradient5415"><stop stop-color="#bebebe" offset="0"/><stop stop-color="#bebebe" offset="0.9"/><stop stop-color="#dcdcdc" offset="1"/></linearGradient><linearGradient id="linearGradient5286"><stop stop-color="#bebebe" offset="0"/><stop stop-color="#bebebe" stop-opacity="0.92" offset="0.5"/><stop stop-color="#dcdcdc" offset="1"/></linearGradient><linearGradient id="linearGradient5386" y2="16.61" xlink:href="#linearGradient5286" gradientUnits="userSpaceOnUse" x2="70.62" gradientTransform="matrix(0.04941858,0.00432356,-0.00432356,0.04941858,40.473046,79.623464)" y1="40.38" x1="62.44"/><linearGradient id="linearGradient5389" y2="14.72" xlink:href="#linearGradient5286" gradientUnits="userSpaceOnUse" x2="41.32" gradientTransform="matrix(0.04941858,0.00432356,-0.00432356,0.04941858,40.473046,79.623464)" y1="30.55" x1="39.61"/><linearGradient id="linearGradient5392" y2="22.85" xlink:href="#linearGradient5286" gradientUnits="userSpaceOnUse" x2="20.65" gradientTransform="matrix(0.04941858,0.00432356,-0.00432356,0.04941858,40.473046,79.623464)" y1="41.26" x1="19.72"/><linearGradient id="linearGradient5395" y2="37.47" xlink:href="#linearGradient5286" gradientUnits="userSpaceOnUse" x2="6" gradientTransform="matrix(0.04941858,0.00432356,-0.00432356,0.04941858,40.473046,79.623464)" y1="51.05" x1="6.93"/><linearGradient id="linearGradient5398" y2="66.43" xlink:href="#linearGradient5286" gradientUnits="userSpaceOnUse" x2="41.4" gradientTransform="matrix(0.04941858,0.00432356,-0.00432356,0.04941858,40.473046,79.623464)" y1="123.3" x1="13.08"/><radialGradient id="radialGradient5401" gradientUnits="userSpaceOnUse" cy="110.74" cx="72.63" gradientTransform="matrix(0.06844721,-0.01082461,0.01199645,0.07585707,37.232515,77.865039)" r="37.15"><stop stop-color="#bebebe" offset="0"/><stop stop-color="#bebebe" offset="0.9"/><stop stop-color="#dcdcdc" offset="1"/></radialGradient><radialGradient id="radialGradient5404" xlink:href="#linearGradient5415" gradientUnits="userSpaceOnUse" cy="31.77" cx="26.98" gradientTransform="matrix(0.05147646,-0.0011786,0.0022444,0.09802608,40.192453,78.426103)" r="7.35"/><radialGradient id="radialGradient5407" xlink:href="#linearGradient5415" gradientUnits="userSpaceOnUse" cy="44.65" cx="11.8" gradientTransform="matrix(0.04012923,-0.00638042,0.01234619,0.0776503,39.82698,78.620014)" r="7.16"/><radialGradient id="radialGradient5410" xlink:href="#linearGradient5415" gradientUnits="userSpaceOnUse" cy="24.09" cx="46.81" gradientTransform="matrix(0.04835913,0.01007118,-0.01759732,0.08449796,40.825557,78.702208)" r="8.5"/><radialGradient id="radialGradient5413" xlink:href="#linearGradient5415" gradientUnits="userSpaceOnUse" cy="8.84" cx="80.25" gradientTransform="matrix(0.03723217,0.01986369,-0.03223548,0.06042164,41.450283,79.552557)" r="16.94"/></defs><g fill-rule="nonzero" transform="matrix(2.914897,0,0,2.914897,-110.63194,-227.48457)" stroke="#dcdcdc" stroke-miterlimit="4" stroke-dasharray="none" stroke-width="0.03"><path d="m42.58 81.34c0.36 0.05 0.89-1.32 0.19-1.29-0.69 0.03-0.56 1.24-0.19 1.29z" fill="url(#radialGradient5410)"/><path opacity="0.5" d="m42.58 81.34c0.36 0.05 0.89-1.32 0.19-1.29-0.69 0.03-0.56 1.24-0.19 1.29z" fill="url(#linearGradient5389)"/><path d="m41.61 81.55c0.31-0.04 0.44-1.3-0.13-1.12-0.57 0.18-0.19 1.16 0.13 1.12z" fill="url(#radialGradient5404)"/><path opacity="0.5" d="m41.61 81.55c0.31-0.04 0.44-1.3-0.13-1.12-0.57 0.18-0.19 1.16 0.13 1.12z" fill="url(#linearGradient5392)"/><path d="m40.83 82.07c0.27-0.09 0.14-1.23-0.33-0.96-0.47 0.27 0.06 1.05 0.33 0.96z" fill="url(#radialGradient5407)"/><path opacity="0.5" d="m40.83 82.07c0.27-0.09 0.14-1.23-0.33-0.96-0.47 0.27 0.06 1.05 0.33 0.96z" fill="url(#linearGradient5395)"/><path d="m44.73 80c-1.22-0.11-1.6 1.61-0.91 1.67 0.68 0.06 2.13-1.56 0.91-1.67z" fill="url(#radialGradient5413)"/><path opacity="0.5" d="m44.73 80c-1.22-0.11-1.6 1.61-0.91 1.67 0.68 0.06 2.13-1.56 0.91-1.67z" fill="url(#linearGradient5386)"/><path d="m42.97 84.52c0.02 0.42-0.36 0.6-0.69 0.3-1.05-0.96 1.98-1.12 1.88-2.31-0.08-0.99-3.09-0.95-3.56 0.54-0.32 1.01 0.73 2.54 1.96 2.65 0.6 0.05 1.35-0.43 1.54-1.11 0.15-0.52-1.14-0.42-1.13-0.07z" fill-rule="nonzero" fill="url(#radialGradient5401)"/><path opacity="0.5" d="m42.97 84.52c0.02 0.42-0.36 0.6-0.69 0.3-1.05-0.96 1.98-1.12 1.88-2.31-0.08-0.99-3.09-0.95-3.56 0.54-0.32 1.01 0.73 2.54 1.96 2.65 0.6 0.05 1.35-0.43 1.54-1.11 0.15-0.52-1.14-0.42-1.13-0.07z" fill-rule="nonzero" fill="url(#linearGradient5398)"/></g></svg>