<svg xmlns="http://www.w3.org/2000/svg" height="200" width="60" version="1.1"><defs><linearGradient id="linearGradient3184-3" y2="25.02" gradientUnits="userSpaceOnUse" x2="62.46" y1="25.02" x1="1.25"><stop stop-color="#f0f0f0" offset="0"/><stop stop-color="#f0f0f0" offset="0.02"/><stop stop-color="#b9b9b9" offset="0.32"/><stop stop-color="#b9b9b9" offset="1"/></linearGradient><linearGradient id="linearGradient3223" y2="25.02" gradientUnits="userSpaceOnUse" x2="62.46" gradientTransform="translate(0.0432913,-0.0134993)" y1="25.02" x1="1.25"><stop stop-color="#000" stop-opacity="0" offset="0"/><stop stop-color="#000" stop-opacity="0" offset="0.22"/><stop stop-color="#000" stop-opacity="0.6" offset="0.52"/><stop stop-color="#000" stop-opacity="0.6" offset="1"/></linearGradient></defs><g stroke-linejoin="round" stroke-opacity="0.5" fill-rule="nonzero" transform="matrix(0.9285407,0,0,0.9285407,-0.69640554,103.2411)" stroke="#808080" stroke-linecap="round"><path d="M31.23 0.25c5.69-0.01 11.37 6.09 16.55 8.93 5.73 3.14 14.7-1.02 14.68 16.24-0.02 17.27-8.83 13.61-14.68 16.4-5.17 2.46-11.02 7.7-16.54 7.96-3.9 0.18-8.92-0.04-8.92-0.04s-21.06 0.1-21.06-24.79c0-24.89 21.06-24.7 21.06-24.7s4.98 0.01 8.92 0z" fill="url(#linearGradient3184-3)"/><path opacity="0.4" d="M31.28 0.24c5.69-0.01 11.37 6.09 16.55 8.93 5.73 3.14 14.7-1.02 14.68 16.24s-8.83 13.61-14.68 16.4c-5.17 2.46-11.02 7.7-16.54 7.96-3.9 0.18-8.92-0.04-8.92-0.04s-21.06 0.1-21.06-24.79c0-24.89 21.06-24.7 21.06-24.7s4.98 0.01 8.92 0z" fill="url(#linearGradient3223)"/></g><g stroke-linejoin="round" stroke-opacity="0.5" fill-rule="nonzero" transform="matrix(0.9285407,0,0,0.9285407,-0.69640553,50.241116)" stroke="#808080" stroke-linecap="round"><path d="M31.23 0.25c5.69-0.01 11.37 6.09 16.55 8.93 5.73 3.14 14.7-1.02 14.68 16.24-0.02 17.27-8.83 13.61-14.68 16.4-5.17 2.46-11.02 7.7-16.54 7.96-3.9 0.18-8.92-0.04-8.92-0.04s-21.06 0.1-21.06-24.79c0-24.89 21.06-24.7 21.06-24.7s4.98 0.01 8.92 0z" fill="url(#linearGradient3184-3)"/><path opacity="0.4" d="M31.28 0.24c5.69-0.01 11.37 6.09 16.55 8.93 5.73 3.14 14.7-1.02 14.68 16.24s-8.83 13.61-14.68 16.4c-5.17 2.46-11.02 7.7-16.54 7.96-3.9 0.18-8.92-0.04-8.92-0.04s-21.06 0.1-21.06-24.79c0-24.89 21.06-24.7 21.06-24.7s4.98 0.01 8.92 0z" fill="url(#linearGradient3223)"/></g></svg>
