<svg xmlns="http://www.w3.org/2000/svg" xmlns:xlink="http://www.w3.org/1999/xlink" height="290" width="60" version="1.1">
  <defs>
    <linearGradient id="linearGradient3184-3" y2="25.02" gradientUnits="userSpaceOnUse" x2="62.46" y1="25.02" x1="1.25">
      <stop stop-color="#f0f0f0" offset="0"/>
      <stop stop-color="#f0f0f0" offset="0.02"/>
      <stop stop-color="#b9b9b9" offset="0.32"/>
      <stop stop-color="#b9b9b9" offset="1"/>
    </linearGradient>
    <linearGradient id="linearGradient3223" y2="25.02" gradientUnits="userSpaceOnUse" x2="62.46" gradientTransform="translate(0.0432913,-0.0134993)" y1="25.02" x1="1.25">
      <stop stop-color="#000" stop-opacity="0" offset="0"/>
      <stop stop-color="#000" stop-opacity="0" offset="0.22"/>
      <stop stop-color="#000" stop-opacity="0.6" offset="0.52"/>
      <stop stop-color="#000" stop-opacity="0.6" offset="1"/>
    </linearGradient>
    <linearGradient id="linearGradient3025" y2="25.02" xlink:href="#linearGradient3184-3" gradientUnits="userSpaceOnUse" x2="62.46" y1="25.02" x1="1.25"/>
    <linearGradient id="linearGradient3027" y2="25.02" xlink:href="#linearGradient3223" gradientUnits="userSpaceOnUse" x2="62.46" gradientTransform="translate(0.0432913,-0.0134993)" y1="25.02" x1="1.25"/>
  </defs>
  <g stroke-linejoin="round" stroke-opacity="0.5" fill-rule="nonzero" transform="matrix(0.9285407,0,0,0.9285407,-0.70569093,148.24723)" stroke="#808080" stroke-linecap="round">
    <path fill="url(#linearGradient3025)" d="m31.23 0.25c5.69-0.01 11.37 6.09 16.55 8.93 5.73 3.14 14.7-1.02 14.68 16.24-0.02 17.27-8.83 13.61-14.68 16.4-5.17 2.46-11.02 7.7-16.54 7.96-3.9 0.18-8.92-0.04-8.92-0.04s-21.06 0.1-21.06-24.79 21.06-24.7 21.06-24.7 4.98 0.01 8.92 0z"/>
    <path opacity="0.4" fill="url(#linearGradient3027)" d="m31.28 0.24c5.69-0.01 11.37 6.09 16.55 8.93 5.73 3.14 14.7-1.02 14.68 16.24s-8.83 13.61-14.68 16.4c-5.17 2.46-11.02 7.7-16.54 7.96-3.9 0.18-8.92-0.04-8.92-0.04s-21.06 0.1-21.06-24.79 21.06-24.7 21.06-24.7 4.98 0.01 8.92 0z"/>
  </g>
  <g stroke-linejoin="round" stroke-opacity="0.5" fill-rule="nonzero" transform="matrix(0.9285407,0,0,0.9285407,-0.70569092,70.247232)" stroke="#808080" stroke-linecap="round">
    <path fill="url(#linearGradient3025)" d="m31.23 0.25c5.69-0.01 11.37 6.09 16.55 8.93 5.73 3.14 14.7-1.02 14.68 16.24-0.02 17.27-8.83 13.61-14.68 16.4-5.17 2.46-11.02 7.7-16.54 7.96-3.9 0.18-8.92-0.04-8.92-0.04s-21.06 0.1-21.06-24.79 21.06-24.7 21.06-24.7 4.98 0.01 8.92 0z"/>
    <path opacity="0.4" fill="url(#linearGradient3027)" d="m31.28 0.24c5.69-0.01 11.37 6.09 16.55 8.93 5.73 3.14 14.7-1.02 14.68 16.24s-8.83 13.61-14.68 16.4c-5.17 2.46-11.02 7.7-16.54 7.96-3.9 0.18-8.92-0.04-8.92-0.04s-21.06 0.1-21.06-24.79 21.06-24.7 21.06-24.7 4.98 0.01 8.92 0z"/>
  </g>
</svg>
