<?xml version="1.0" encoding="UTF-8" standalone="no"?>
<!-- Created with Inkscape (http://www.inkscape.org/) -->

<svg
   xmlns:dc="http://purl.org/dc/elements/1.1/"
   xmlns:cc="http://creativecommons.org/ns#"
   xmlns:rdf="http://www.w3.org/1999/02/22-rdf-syntax-ns#"
   xmlns:svg="http://www.w3.org/2000/svg"
   xmlns="http://www.w3.org/2000/svg"
   xmlns:xlink="http://www.w3.org/1999/xlink"
   version="1.1"
   width="42"
   height="42"
   id="svg2">
  <defs
     id="defs4">
    <marker
       refX="0"
       refY="0"
       orient="auto"
       id="InfiniteLineStart"
       style="overflow:visible">
      <g
         transform="translate(-13,0)"
         id="g4088"
         style="fill:#000000">
        <circle
           cx="3"
           cy="0"
           r="0.80000001"
           id="circle4090" />
        <circle
           cx="6.5"
           cy="0"
           r="0.80000001"
           id="circle4092" />
        <circle
           cx="10"
           cy="0"
           r="0.80000001"
           id="circle4094" />
      </g>
    </marker>
    <marker
       refX="0"
       refY="0"
       orient="auto"
       id="StopS"
       style="overflow:visible">
      <path
         d="M 0,5.65 0,-5.65"
         transform="scale(0.2,0.2)"
         id="path4019"
         style="fill:none;stroke:#000000;stroke-width:1pt" />
    </marker>
    <marker
       refX="0"
       refY="0"
       orient="auto"
       id="EmptyTriangleOutS"
       style="overflow:visible">
      <path
         d="m 5.77,0 -8.65,5 0,-10 8.65,5 z"
         transform="matrix(0.2,0,0,0.2,-0.6,0)"
         id="path4010"
         style="fill:#ffffff;fill-rule:evenodd;stroke:#000000;stroke-width:1pt" />
    </marker>
    <marker
       refX="0"
       refY="0"
       orient="auto"
       id="EmptyDiamondS"
       style="overflow:visible">
      <path
         d="M 0,-7.0710768 -7.0710894,0 0,7.0710589 7.0710462,0 0,-7.0710768 z"
         transform="scale(0.2,0.2)"
         id="path3956"
         style="fill:#ffffff;fill-rule:evenodd;stroke:#000000;stroke-width:1pt" />
    </marker>
    <marker
       refX="0"
       refY="0"
       orient="auto"
       id="DotM"
       style="overflow:visible">
      <path
         d="m -2.5,-1 c 0,2.76 -2.24,5 -5,5 -2.76,0 -5,-2.24 -5,-5 0,-2.76 2.24,-5 5,-5 2.76,0 5,2.24 5,5 z"
         transform="matrix(0.4,0,0,0.4,2.96,0.4)"
         id="path3908"
         style="fill-rule:evenodd;stroke:#000000;stroke-width:1pt" />
    </marker>
    <marker
       refX="0"
       refY="0"
       orient="auto"
       id="DistanceStart"
       style="overflow:visible">
      <g
         id="g2300">
        <path
           d="M 0,0 2,0"
           id="path2306"
           style="fill:none;stroke:#ffffff;stroke-width:1.14999998;stroke-linecap:square" />
        <path
           d="M 0,0 13,4 9,0 13,-4 0,0 z"
           id="path2302"
           style="fill:#000000;fill-rule:evenodd;stroke:none" />
        <path
           d="M 0,-4 0,40"
           id="path2304"
           style="fill:none;stroke:#000000;stroke-width:1;stroke-linecap:square" />
      </g>
    </marker>
    <marker
       refX="0"
       refY="0"
       orient="auto"
       id="Tail"
       style="overflow:visible">
      <g
         transform="scale(-1.2,-1.2)"
         id="g3880">
        <path
           d="M -3.8048674,-3.9585227 0.54352094,0"
           id="path3882"
           style="fill:none;stroke:#000000;stroke-width:0.80000001;stroke-linecap:round" />
        <path
           d="M -1.2866832,-3.9585227 3.0617053,0"
           id="path3884"
           style="fill:none;stroke:#000000;stroke-width:0.80000001;stroke-linecap:round" />
        <path
           d="M 1.3053582,-3.9585227 5.6537466,0"
           id="path3886"
           style="fill:none;stroke:#000000;stroke-width:0.80000001;stroke-linecap:round" />
        <path
           d="M -3.8048674,4.1775838 0.54352094,0.21974226"
           id="path3888"
           style="fill:none;stroke:#000000;stroke-width:0.80000001;stroke-linecap:round" />
        <path
           d="M -1.2866832,4.1775838 3.0617053,0.21974226"
           id="path3890"
           style="fill:none;stroke:#000000;stroke-width:0.80000001;stroke-linecap:round" />
        <path
           d="M 1.3053582,4.1775838 5.6537466,0.21974226"
           id="path3892"
           style="fill:none;stroke:#000000;stroke-width:0.80000001;stroke-linecap:round" />
      </g>
    </marker>
    <marker
       refX="0"
       refY="0"
       orient="auto"
       id="Arrow1Mend"
       style="overflow:visible">
      <path
         d="M 0,0 5,-5 -12.5,0 5,5 0,0 z"
         transform="matrix(-0.4,0,0,-0.4,-4,0)"
         id="path3853"
         style="fill-rule:evenodd;stroke:#000000;stroke-width:1pt" />
    </marker>
    <marker
       refX="0"
       refY="0"
       orient="auto"
       id="Arrow1Lstart"
       style="overflow:visible">
      <path
         d="M 0,0 5,-5 -12.5,0 5,5 0,0 z"
         transform="matrix(0.8,0,0,0.8,10,0)"
         id="path3844"
         style="fill-rule:evenodd;stroke:#000000;stroke-width:1pt" />
    </marker>
    <linearGradient
       id="linearGradient3819">
      <stop
         id="stop3821"
         style="stop-color:#ffffff;stop-opacity:0"
         offset="0" />
      <stop
         id="stop3823"
         style="stop-color:#ffffff;stop-opacity:0.1"
         offset="1" />
    </linearGradient>
    <linearGradient
       id="linearGradient3766">
      <stop
         id="stop3834"
         style="stop-color:#999999;stop-opacity:1"
         offset="1" />
      <stop
         id="stop3776"
         style="stop-color:#999999;stop-opacity:0"
         offset="1" />
    </linearGradient>
    <radialGradient
       cx="39.592411"
       cy="14.76443"
       r="22.629438"
       fx="39.592411"
       fy="14.76443"
       id="radialGradient3836"
       xlink:href="#linearGradient3766"
       gradientUnits="userSpaceOnUse"
       gradientTransform="matrix(-0.74205551,-0.3505317,-0.40838089,0.75039469,54.462848,1033.2589)" />
    <linearGradient
       x1="16.962753"
       y1="14.778528"
       x2="62.222069"
       y2="14.778528"
       id="linearGradient3838"
       xlink:href="#linearGradient3819"
       gradientUnits="userSpaceOnUse"
       gradientTransform="matrix(-0.74205551,-0.3505317,-0.37897184,0.69635594,54.02864,1034.0568)" />
  </defs>
  <metadata
     id="metadata7">
    <rdf:RDF>
      <cc:Work
         rdf:about="">
        <dc:format>image/svg+xml</dc:format>
        <dc:type
           rdf:resource="http://purl.org/dc/dcmitype/StillImage" />
        <dc:title></dc:title>
      </cc:Work>
    </rdf:RDF>
  </metadata>
  <g
     transform="translate(0,-1010.3622)"
     id="layer1">
    <path
       d="m 32.642658,1039.4185 c 6.542599,-5.8717 6.042255,-15.858 -0.28083,-21.614 -7.076692,-6.4421 -18.743221,-5.8024 -25.4644855,0.8701 -7.28964901,7.2368 -6.58246247,18.9085 1.1019761,25.5539 5.2285854,4.5216 14.4935154,6.663 19.6607824,4.0741"
       id="path2996"
       style="fill:url(#linearGradient3838);fill-opacity:1;stroke:url(#radialGradient3836);stroke-width:3.88616467;stroke-linecap:round;stroke-linejoin:round;stroke-miterlimit:4;stroke-opacity:1;stroke-dasharray:none;stroke-dashoffset:0;marker-start:none;marker-mid:none;marker-end:none" />
  </g>
</svg>
